<mxfile host="app.diagrams.net" agent="Mozilla/5.0 (X11; Linux x86_64; rv:132.0) Gecko/20100101 Firefox/132.0" version="24.8.6">
  <diagram name="Page-1" id="02LD7Rzg16QRNztDjk3p">
    <mxGraphModel dx="1410" dy="768" grid="1" gridSize="10" guides="1" tooltips="1" connect="1" arrows="1" fold="1" page="1" pageScale="1" pageWidth="850" pageHeight="1100" math="0" shadow="0">
      <root>
        <mxCell id="0" />
        <mxCell id="1" parent="0" />
        <mxCell id="Y7aUnZaKC6lP16bbP0hc-1" value="&lt;b&gt;Team Evaluation Agent&lt;/b&gt;" style="whiteSpace=wrap;html=1;aspect=fixed;" vertex="1" parent="1">
          <mxGeometry x="218.75" y="760" width="60" height="60" as="geometry" />
        </mxCell>
        <mxCell id="Y7aUnZaKC6lP16bbP0hc-5" value="" style="shape=image;verticalLabelPosition=bottom;labelBackgroundColor=default;verticalAlign=top;aspect=fixed;imageAspect=0;image=https://www.freeiconspng.com/thumbs/pikachu-transparent/pikachu-transparent-hd-1.png;" vertex="1" parent="1">
          <mxGeometry x="166.25" y="833.6" width="50" height="50.31" as="geometry" />
        </mxCell>
        <mxCell id="Y7aUnZaKC6lP16bbP0hc-6" value="" style="shape=image;verticalLabelPosition=bottom;labelBackgroundColor=default;verticalAlign=top;aspect=fixed;imageAspect=0;image=https://assets.pokemon.com/assets/cms2/img/pokedex/full//004.png;" vertex="1" parent="1">
          <mxGeometry x="218.75" y="830" width="57.5" height="57.5" as="geometry" />
        </mxCell>
        <mxCell id="Y7aUnZaKC6lP16bbP0hc-7" value="" style="shape=image;verticalLabelPosition=bottom;labelBackgroundColor=default;verticalAlign=top;aspect=fixed;imageAspect=0;image=https://www.pokemon.com/static-assets/content-assets/cms2/img/pokedex/full/001.png;" vertex="1" parent="1">
          <mxGeometry x="276.25" y="830" width="57.5" height="57.5" as="geometry" />
        </mxCell>
        <mxCell id="Y7aUnZaKC6lP16bbP0hc-8" value="" style="shape=image;verticalLabelPosition=bottom;labelBackgroundColor=default;verticalAlign=top;aspect=fixed;imageAspect=0;image=https://assets.pokemon.com/assets/cms2/img/pokedex/full//007.png;direction=east;flipH=1;" vertex="1" parent="1">
          <mxGeometry x="491.25" y="831.88" width="53.75" height="53.75" as="geometry" />
        </mxCell>
        <mxCell id="Y7aUnZaKC6lP16bbP0hc-9" value="" style="shape=image;verticalLabelPosition=bottom;labelBackgroundColor=default;verticalAlign=top;aspect=fixed;imageAspect=0;image=https://assets.pokemon.com/assets/cms2/img/pokedex/full//129.png;" vertex="1" parent="1">
          <mxGeometry x="600" y="829.38" width="56.25" height="56.25" as="geometry" />
        </mxCell>
        <mxCell id="Y7aUnZaKC6lP16bbP0hc-10" value="&lt;ul&gt;&lt;li&gt;Examine both the Pokemon in battle&lt;/li&gt;&lt;li&gt;Are we at a type advantage?&lt;/li&gt;&lt;li&gt;What is their HP and our HP?&lt;br&gt;&lt;/li&gt;&lt;li&gt;Do their abilities / hidden abilities benefit or weaken us?&amp;nbsp;&lt;/li&gt;&lt;li&gt;What status effects are in play? &lt;br&gt;&lt;/li&gt;&lt;li&gt;&lt;font color=&quot;#813d9c&quot;&gt;Response: A summary of state of the most relevant &lt;br&gt;details and possibly a recomendation&lt;/font&gt;&lt;br&gt;&lt;/li&gt;&lt;/ul&gt;" style="text;html=1;align=left;verticalAlign=middle;resizable=0;points=[];autosize=1;strokeColor=none;fillColor=none;" vertex="1" parent="1">
          <mxGeometry x="410" y="871" width="330" height="140" as="geometry" />
        </mxCell>
        <mxCell id="Y7aUnZaKC6lP16bbP0hc-11" value="&lt;b&gt;Battle Evaluator&lt;/b&gt;" style="whiteSpace=wrap;html=1;aspect=fixed;" vertex="1" parent="1">
          <mxGeometry x="545" y="760" width="60" height="60" as="geometry" />
        </mxCell>
        <mxCell id="Y7aUnZaKC6lP16bbP0hc-12" value="&lt;ul&gt;&lt;li&gt;Analyze each Pokemon in party&amp;nbsp;&lt;/li&gt;&lt;li&gt;Do their types play well against the opponent?&lt;/li&gt;&lt;li&gt;Do their moves play well against the opponent?&lt;/li&gt;&lt;li&gt;Do they have any status effects or are they fainted?&lt;/li&gt;&lt;li&gt;&lt;font color=&quot;#813d9c&quot;&gt;Response: A summary of each available Pokemon and&lt;br&gt;a recommendation on which Pokemon could be chosen&lt;br&gt;&lt;/font&gt;&lt;/li&gt;&lt;/ul&gt;" style="text;html=1;align=left;verticalAlign=middle;resizable=0;points=[];autosize=1;strokeColor=none;fillColor=none;" vertex="1" parent="1">
          <mxGeometry x="110" y="871" width="320" height="130" as="geometry" />
        </mxCell>
        <mxCell id="Y7aUnZaKC6lP16bbP0hc-14" value="" style="shape=image;verticalLabelPosition=bottom;labelBackgroundColor=default;verticalAlign=top;aspect=fixed;imageAspect=0;image=https://archives.bulbagarden.net/media/upload/3/3d/Spr_HGSS_Super_Nerd.png;" vertex="1" parent="1">
          <mxGeometry x="365" y="485" width="90" height="90" as="geometry" />
        </mxCell>
        <mxCell id="Y7aUnZaKC6lP16bbP0hc-15" value="&lt;b&gt;Orchestrater Agent&lt;/b&gt;" style="text;html=1;align=center;verticalAlign=middle;resizable=0;points=[];autosize=1;strokeColor=none;fillColor=none;" vertex="1" parent="1">
          <mxGeometry x="350" y="480" width="120" height="30" as="geometry" />
        </mxCell>
        <mxCell id="Y7aUnZaKC6lP16bbP0hc-16" value="&lt;ul&gt;&lt;li&gt;Calls other agents to extract information&lt;/li&gt;&lt;li&gt;Obtains their responses to evaluate the next move&lt;/li&gt;&lt;li&gt;Given their responses, will choose either to swap &lt;br&gt;or make the next move with the current Pokemon&lt;br&gt;&lt;/li&gt;&lt;/ul&gt;" style="text;html=1;align=left;verticalAlign=middle;resizable=0;points=[];autosize=1;strokeColor=none;fillColor=none;" vertex="1" parent="1">
          <mxGeometry x="260" y="570" width="300" height="100" as="geometry" />
        </mxCell>
        <mxCell id="Y7aUnZaKC6lP16bbP0hc-20" value="" style="endArrow=classic;html=1;rounded=0;exitX=0.16;exitY=1;exitDx=0;exitDy=0;exitPerimeter=0;" edge="1" parent="1" source="Y7aUnZaKC6lP16bbP0hc-16">
          <mxGeometry width="50" height="50" relative="1" as="geometry">
            <mxPoint x="340" y="730" as="sourcePoint" />
            <mxPoint x="250" y="750" as="targetPoint" />
          </mxGeometry>
        </mxCell>
        <mxCell id="Y7aUnZaKC6lP16bbP0hc-21" value="" style="endArrow=classic;html=1;rounded=0;exitX=0.16;exitY=1;exitDx=0;exitDy=0;exitPerimeter=0;" edge="1" parent="1">
          <mxGeometry width="50" height="50" relative="1" as="geometry">
            <mxPoint x="530" y="670" as="sourcePoint" />
            <mxPoint x="570" y="750" as="targetPoint" />
          </mxGeometry>
        </mxCell>
      </root>
    </mxGraphModel>
  </diagram>
</mxfile>
